<svg id="katman_1" data-name="katman 1" xmlns="http://www.w3.org/2000/svg" xmlns:xlink="http://www.w3.org/1999/xlink" viewBox="0 0 1080 1080"><defs><style>.cls-1{fill:url(#Adsız_degrade_4);}.cls-2{fill:#fff;}.cls-3{fill:url(#Adsız_degrade_13);}.cls-4{fill:url(#Adsız_degrade_3);}.cls-5{fill:url(#Adsız_degrade_12);}.cls-6{fill:url(#Adsız_degrade_3-2);}</style><linearGradient id="Adsız_degrade_4" x1="-1950.31" y1="4597.57" x2="2636.97" y2="10.29" gradientUnits="userSpaceOnUse"><stop offset="0" stop-color="#a887f9"/><stop offset="1" stop-color="#8224e3"/></linearGradient><linearGradient id="Adsız_degrade_13" x1="696.46" y1="269.16" x2="452.03" y2="513.59" gradientUnits="userSpaceOnUse"><stop offset="0" stop-color="#8224e3"/><stop offset="1" stop-color="#a887f9"/></linearGradient><linearGradient id="Adsız_degrade_3" x1="532.52" y1="416.25" x2="688.08" y2="274.91" gradientUnits="userSpaceOnUse"><stop offset="0" stop-color="#39b54a"/><stop offset="1" stop-color="#d9e021"/></linearGradient><linearGradient id="Adsız_degrade_12" x1="504.03" y1="475.37" x2="700.47" y2="271.82" xlink:href="#Adsız_degrade_13"/><linearGradient id="Adsız_degrade_3-2" x1="594.86" y1="660.48" x2="625.19" y2="630.15" xlink:href="#Adsız_degrade_3"/></defs><path class="cls-1" d="M714.08,317.5V467a66,66,0,0,1-66,66H498.58a66,66,0,0,1-66-66V317.5a66,66,0,0,1,66-66H648.11a66,66,0,0,1,66,66Z"/><path class="cls-1" d="M693.19,269.39,647.75,484.66H536.3c-19.28,0-36.07-7.57-49.9-22.49S465.65,429,465.65,407.63c0-32.15,10.35-59.26,30.78-80.6s44.12-32.19,70.32-32.19a64.4,64.4,0,0,1,36.08,10.66l21.8-54h-126a66,66,0,0,0-66,66V467a66,66,0,0,0,66,66H648.11a66,66,0,0,0,66-66V317.5A65.71,65.71,0,0,0,693.19,269.39Z"/><path class="cls-1" d="M534.5,360.09a48.91,48.91,0,0,0-4.76,4.39c-8.08,8.43-12.32,19.11-12.62,31.75L601.21,430l29.91-75.07,39.33-99.44a65.62,65.62,0,0,0-22.34-3.91H630L579,377.92Z"/><path class="cls-1" d="M604,436.47l-91.86-36.85v-1.68a2.35,2.35,0,0,1,0-.27c0-14.61,4.71-26.94,14-36.65a56.12,56.12,0,0,1,6.44-5.78l1.13-.86,42.49,17,24.72-61.17a59.42,59.42,0,0,0-34.16-10.41c-24.78,0-47.22,10.31-66.7,30.65s-29.4,46.32-29.4,77.14c0,20,6.53,37.23,19.42,51.14s28.4,20.89,46.23,20.89H643.7l45.17-214a65.6,65.6,0,0,0-13.78-8.35l-39.33,99.43Z"/><path class="cls-1" d="M378.1,739.52a18.87,18.87,0,0,0,7.47,11.86q6,4.46,15.09,4.45a35.35,35.35,0,0,0,13.18-2.59,34.88,34.88,0,0,0,9.58-5.24l3-2.55,11.33,24.25a19.37,19.37,0,0,1-2,1.64q-1.32,1-5.77,3.71a74.27,74.27,0,0,1-9.21,4.76,64.2,64.2,0,0,1-12.44,3.65,76.31,76.31,0,0,1-15.51,1.59q-21.7,0-36.58-13.87t-14.88-32.93q0-26.25,19.85-45t46.54-18.74q20.64,0,34.41,12.13t13.76,30.12a59.24,59.24,0,0,1-4.76,22.76Zm3.6-21.6h38.23a15.25,15.25,0,0,0-4.77-10.85,16.2,16.2,0,0,0-11.75-4.39Q389.12,702.68,381.7,717.92Z"/><path class="cls-1" d="M478.7,693.25q20-18.74,47.12-18.74a58,58,0,0,1,16.3,2.28,51.18,51.18,0,0,1,12.82,5.4,80.81,80.81,0,0,1,8.78,6.3,33.19,33.19,0,0,1,5.51,5.51l1.69,2.22-25.51,21.92c-.57-.85-1.36-1.89-2.39-3.13s-3.38-2.87-7.09-4.92A24,24,0,0,0,524.12,707,26.48,26.48,0,0,0,505,714.75,25.67,25.67,0,0,0,497,733.91a18.18,18.18,0,0,0,5.29,13.24q5.29,5.4,13.77,5.4a26.26,26.26,0,0,0,12.12-3,31.81,31.81,0,0,0,8.74-6.09l2.75-2.75,17.36,23.4a27.2,27.2,0,0,1-2,2.28,66.77,66.77,0,0,1-5.93,5,70.3,70.3,0,0,1-9.69,6.35,63.65,63.65,0,0,1-13.23,5.09,61.28,61.28,0,0,1-16.57,2.27q-21.08,0-36-14.29t-14.93-33.14Q458.69,712,478.7,693.25Z"/><path class="cls-1" d="M599.88,782.94H563l22.55-106.31h36.85Z"/><path class="cls-1" d="M692.83,764.72a8,8,0,0,1-1.38,1.49c-.63.56-2,1.66-4.13,3.28a40.86,40.86,0,0,1-15.61,7.57,42,42,0,0,1-11.18,1.53q-14.92,0-26.41-12.81a43.58,43.58,0,0,1-11.49-30.07,60.21,60.21,0,0,1,17.31-43.09q17.31-18.11,37.54-18.11a35.32,35.32,0,0,1,17,4.13q7.68,4.14,11,8.26L708.5,691l3-14.4h36.85L728.19,771A73.45,73.45,0,0,1,704,811.84a65.22,65.22,0,0,1-44.31,16.62,67.29,67.29,0,0,1-18.11-2.38,57.49,57.49,0,0,1-14-5.61,78,78,0,0,1-9.53-6.62,38.34,38.34,0,0,1-5.93-5.72l-1.91-2.43,24.46-21.28c.56.84,1.43,2,2.59,3.49s3.85,3.37,8.05,5.67A29,29,0,0,0,659.48,797q12.16,0,20.69-7.15A33.44,33.44,0,0,0,691.35,771Zm-24.51-51.08a21.44,21.44,0,0,0-6.94,16.14,15.58,15.58,0,0,0,4.87,11.49,16.24,16.24,0,0,0,11.86,4.82,22.27,22.27,0,0,0,16.15-6.72,21.52,21.52,0,0,0,6.83-15.83,15.78,15.78,0,0,0-5-11.6,16.41,16.41,0,0,0-12-4.92A22.26,22.26,0,0,0,668.32,713.64Z"/><path class="cls-1" d="M847.32,767q-19.43,18.1-44.73,18.1-24,0-39.55-15t-15.51-35.68q0-23.61,19.27-41.72t44.89-18.11q24,0,39.55,14.93T866.75,725Q866.75,748.84,847.32,767Zm-54.1-51.78q-7.37,8.16-7.36,18.11A19.5,19.5,0,0,0,790.94,747a16.81,16.81,0,0,0,12.92,5.51q9.1,0,16.67-7.89a25.94,25.94,0,0,0,7.57-18.58q0-8.48-5.08-13.77A17.13,17.13,0,0,0,810.1,707Q800.58,707,793.22,715.17Z"/><path class="cls-1" d="M312.11,707.37l-18.44,46.29L241,732.55v-.15q0-12.57,8-20.88a31,31,0,0,1,3.68-3.3l26,10.43,15.61-39.21a36.86,36.86,0,0,0-22.09-7q-23,0-41,18.79t-18,47.17q0,18.63,12,31.61t28.74,13h65.45l41.77-198.85L312.11,707.37Z"/><path class="cls-1" d="M595.69,632.43a22.26,22.26,0,0,1,16.36-6.73q8.48,0,13.77,5.09a16.38,16.38,0,0,1,5.29,12.28q0,8.68-6.83,15.19a22.35,22.35,0,0,1-15.93,6.51q-8.69,0-14-4.87A15.87,15.87,0,0,1,589,647.62Q589,639.15,595.69,632.43Z"/><path class="cls-2" d="M714.08,317.5V467a66,66,0,0,1-66,66H498.58a66,66,0,0,1-66-66V317.5a66,66,0,0,1,66-66H648.11a66,66,0,0,1,66,66Z"/><path class="cls-3" d="M693.19,269.39,647.75,484.66H536.3c-19.28,0-36.07-7.57-49.9-22.49S465.65,429,465.65,407.63c0-32.15,10.35-59.26,30.78-80.6s44.12-32.19,70.32-32.19a64.4,64.4,0,0,1,36.08,10.66l21.8-54h-126a66,66,0,0,0-66,66V467a66,66,0,0,0,66,66H648.11a66,66,0,0,0,66-66V317.5A65.71,65.71,0,0,0,693.19,269.39Z"/><path class="cls-4" d="M534.5,360.09a48.91,48.91,0,0,0-4.76,4.39c-8.08,8.43-12.32,19.11-12.62,31.75L601.21,430l29.91-75.07,39.33-99.44a65.62,65.62,0,0,0-22.34-3.91H630L579,377.92Z"/><path class="cls-5" d="M604,436.47l-91.86-36.85v-1.68a2.35,2.35,0,0,1,0-.27c0-14.61,4.71-26.94,14-36.65a56.12,56.12,0,0,1,6.44-5.78l1.13-.86,42.49,17,24.72-61.17a59.42,59.42,0,0,0-34.16-10.41c-24.78,0-47.22,10.31-66.7,30.65s-29.4,46.32-29.4,77.14c0,20,6.53,37.23,19.42,51.14s28.4,20.89,46.23,20.89H643.7l45.17-214a65.6,65.6,0,0,0-13.78-8.35l-39.33,99.43Z"/><path class="cls-2" d="M378.1,739.52a18.87,18.87,0,0,0,7.47,11.86q6,4.46,15.09,4.45a35.35,35.35,0,0,0,13.18-2.59,34.88,34.88,0,0,0,9.58-5.24l3-2.55,11.33,24.25a19.37,19.37,0,0,1-2,1.64q-1.32,1-5.77,3.71a74.27,74.27,0,0,1-9.21,4.76,64.2,64.2,0,0,1-12.44,3.65,76.31,76.31,0,0,1-15.51,1.59q-21.7,0-36.58-13.87t-14.88-32.93q0-26.25,19.85-45t46.54-18.74q20.64,0,34.41,12.13t13.76,30.12a59.24,59.24,0,0,1-4.76,22.76Zm3.6-21.6h38.23a15.25,15.25,0,0,0-4.77-10.85,16.2,16.2,0,0,0-11.75-4.39Q389.12,702.68,381.7,717.92Z"/><path class="cls-2" d="M478.7,693.25q20-18.74,47.12-18.74a58,58,0,0,1,16.3,2.28,51.18,51.18,0,0,1,12.82,5.4,80.81,80.81,0,0,1,8.78,6.3,33.19,33.19,0,0,1,5.51,5.51l1.69,2.22-25.51,21.92c-.57-.85-1.36-1.89-2.39-3.13s-3.38-2.87-7.09-4.92A24,24,0,0,0,524.12,707,26.48,26.48,0,0,0,505,714.75,25.67,25.67,0,0,0,497,733.91a18.18,18.18,0,0,0,5.29,13.24q5.29,5.4,13.77,5.4a26.26,26.26,0,0,0,12.12-3,31.81,31.81,0,0,0,8.74-6.09l2.75-2.75,17.36,23.4a27.2,27.2,0,0,1-2,2.28,66.77,66.77,0,0,1-5.93,5,70.3,70.3,0,0,1-9.69,6.35,63.65,63.65,0,0,1-13.23,5.09,61.28,61.28,0,0,1-16.57,2.27q-21.08,0-36-14.29t-14.93-33.14Q458.69,712,478.7,693.25Z"/><path class="cls-2" d="M599.88,782.94H563l22.55-106.31h36.85Z"/><path class="cls-2" d="M692.83,764.72a8,8,0,0,1-1.38,1.49c-.63.56-2,1.66-4.13,3.28a40.86,40.86,0,0,1-15.61,7.57,42,42,0,0,1-11.18,1.53q-14.92,0-26.41-12.81a43.58,43.58,0,0,1-11.49-30.07,60.21,60.21,0,0,1,17.31-43.09q17.31-18.11,37.54-18.11a35.32,35.32,0,0,1,17,4.13q7.68,4.14,11,8.26L708.5,691l3-14.4h36.85L728.19,771A73.45,73.45,0,0,1,704,811.84a65.22,65.22,0,0,1-44.31,16.62,67.29,67.29,0,0,1-18.11-2.38,57.49,57.49,0,0,1-14-5.61,78,78,0,0,1-9.53-6.62,38.34,38.34,0,0,1-5.93-5.72l-1.91-2.43,24.46-21.28c.56.84,1.43,2,2.59,3.49s3.85,3.37,8.05,5.67A29,29,0,0,0,659.48,797q12.16,0,20.69-7.15A33.44,33.44,0,0,0,691.35,771Zm-24.51-51.08a21.44,21.44,0,0,0-6.94,16.14,15.58,15.58,0,0,0,4.87,11.49,16.24,16.24,0,0,0,11.86,4.82,22.27,22.27,0,0,0,16.15-6.72,21.52,21.52,0,0,0,6.83-15.83,15.78,15.78,0,0,0-5-11.6,16.41,16.41,0,0,0-12-4.92A22.26,22.26,0,0,0,668.32,713.64Z"/><path class="cls-2" d="M847.32,767q-19.43,18.1-44.73,18.1-24,0-39.55-15t-15.51-35.68q0-23.61,19.27-41.72t44.89-18.11q24,0,39.55,14.93T866.75,725Q866.75,748.84,847.32,767Zm-54.1-51.78q-7.37,8.16-7.36,18.11A19.5,19.5,0,0,0,790.94,747a16.81,16.81,0,0,0,12.92,5.51q9.1,0,16.67-7.89a25.94,25.94,0,0,0,7.57-18.58q0-8.48-5.08-13.77A17.13,17.13,0,0,0,810.1,707Q800.58,707,793.22,715.17Z"/><path class="cls-2" d="M312.11,707.37l-18.44,46.29L241,732.55v-.15q0-12.57,8-20.88a31,31,0,0,1,3.68-3.3l26,10.43,15.61-39.21a36.86,36.86,0,0,0-22.09-7q-23,0-41,18.79t-18,47.17q0,18.63,12,31.61t28.74,13h65.45l41.77-198.85L312.11,707.37Z"/><path class="cls-6" d="M595.69,632.43a22.26,22.26,0,0,1,16.36-6.73q8.48,0,13.77,5.09a16.38,16.38,0,0,1,5.29,12.28q0,8.68-6.83,15.19a22.35,22.35,0,0,1-15.93,6.51q-8.69,0-14-4.87A15.87,15.87,0,0,1,589,647.62Q589,639.15,595.69,632.43Z"/></svg>